<svg width="674" height="116" viewBox="0 0 674 116" fill="none" xmlns="http://www.w3.org/2000/svg">
<path d="M205.415 45.8972C205.415 54.0316 205.634 57.5731 206.619 58.5692C207.604 59.5652 208.918 59.8419 213.187 59.8419C216.088 59.8419 218.497 59.7866 219.756 58.1818C220.483 57.2042 220.97 56.0664 221.179 54.8617C221.234 54.419 221.343 54.1423 221.672 54.1423C222 54.1423 222 54.3636 222 54.9723C221.871 56.8359 221.597 58.6862 221.179 60.5059C220.796 61.7787 220.632 62 217.731 62C213.023 62 208.371 61.668 203.061 61.668C201.364 61.668 199.777 61.834 197.697 61.834C197.095 61.834 196.821 61.7233 196.821 61.3913C196.821 61.0593 196.931 61.0593 197.259 61.0593C197.812 61.04 198.362 60.9659 198.901 60.8379C199.996 60.6166 200.269 59.3992 200.488 57.7945C200.762 55.4704 200.762 51.0988 200.762 45.7866V36.0474C200.762 27.415 200.762 25.8656 200.653 24.0949C200.543 22.3241 200.105 21.3281 198.299 20.9407C197.685 20.8281 197.062 20.7726 196.438 20.7747C196.219 20.7747 196 20.664 196 20.4427C196 20.2213 196.274 20 196.876 20C199.339 20 202.787 20.166 203.061 20.166C203.335 20.166 207.331 20 208.973 20C209.575 20 209.848 20.1107 209.848 20.4427C209.848 20.7747 209.629 20.7747 209.411 20.7747C208.805 20.787 208.202 20.8424 207.604 20.9407C206.017 21.2174 205.579 22.1581 205.469 24.0949C205.36 25.8656 205.36 27.415 205.36 36.0474L205.415 45.8972Z" fill="#231F20"/>
<path d="M237.114 36.1111C237.114 27.4444 237.114 25.8889 237.005 24.1111C236.895 22.3333 236.346 21.2778 235.139 21C234.583 20.8582 234.012 20.7836 233.439 20.7778C233.219 20.7778 233 20.6667 233 20.4444C233 20.2222 233.274 20 233.878 20C235.688 20 239.144 20.1667 239.364 20.1667C239.583 20.1667 243.105 20 244.74 20C245.343 20 245.618 20.1111 245.618 20.4444C245.618 20.7778 245.409 20.7778 245.19 20.7778C244.725 20.7938 244.263 20.8496 243.807 20.9444C242.337 21.2222 241.898 22.1667 241.788 24.1111C241.679 25.8889 241.679 27.4444 241.679 36.1111V45.8889C241.679 51.2222 241.679 55.6111 241.953 57.9445C242.107 59.5556 242.447 60.7778 244.081 61C244.85 61.1111 246.002 61.2222 246.342 61.2222C246.682 61.2222 247 61.3889 247 61.5556C247 61.7222 246.77 62 246.166 62C243.149 62 239.638 61.8333 239.364 61.8333C239.089 61.8333 235.644 62 233.998 62C233.395 62 233.121 61.8889 233.121 61.5556C233.121 61.2222 233.23 61.2222 233.724 61.2222C234.204 61.2125 234.681 61.1567 235.15 61.0556C236.248 60.8333 236.577 59.5556 236.796 57.9445C237.071 55.6111 237.071 51.2222 237.071 45.8889L237.114 36.1111Z" fill="#231F20"/>
<path d="M258.662 25.2997C257.42 22.1757 256.573 21.562 254.597 21.0041C253.894 20.8428 253.173 20.7679 252.452 20.781C252.113 20.781 252 20.6136 252 20.3905C252 20.1673 252.565 20 253.468 20C256.178 20 259.227 20.1674 259.905 20.1674C260.582 20.1674 262.897 20.0446 265.043 20.0446C266.059 20.0446 266.567 20.1562 266.567 20.4351C266.567 20.7141 266.398 20.8256 266.003 20.8256C265.277 20.801 264.552 20.8953 263.857 21.1046C263.63 21.188 263.435 21.3415 263.303 21.5425C263.171 21.7434 263.108 21.9811 263.123 22.2203C263.36 23.4491 263.739 24.647 264.252 25.7906L275.77 55.4131C279.045 47.9377 286.611 28.4683 287.853 24.4517C288.119 23.7712 288.29 23.058 288.361 22.3319C288.375 22.0712 288.313 21.812 288.183 21.5847C288.053 21.3574 287.861 21.1715 287.627 21.0488C286.928 20.8672 286.204 20.792 285.482 20.8256C285.143 20.8256 284.861 20.8256 284.861 20.4909C284.861 20.1562 285.199 20.0446 286.103 20.0446C288.361 20.0446 290.959 20.212 291.636 20.212C291.975 20.212 294.403 20.0446 296.04 20.0446C296.661 20.0446 297 20.1562 297 20.4351C297 20.7141 296.774 20.8256 296.322 20.8256C295.374 20.7966 294.436 21.0284 293.612 21.4951C292.878 21.9971 292.031 22.9455 290.507 26.739C289.886 28.301 287.063 34.9953 284.183 41.857C280.795 50.0018 278.198 56.0267 276.9 58.7602C275.319 62.1074 275.093 63 274.528 63C273.964 63 273.568 62.219 272.496 59.5412L258.662 25.2997Z" fill="#231F20"/>
<path d="M310.118 36.1111C310.118 27.4444 310.118 25.8889 310.008 24.1111C309.898 22.3333 309.349 21.2778 308.141 21C307.585 20.8576 307.013 20.783 306.439 20.7778C306.22 20.7778 306 20.6667 306 20.4444C306 20.2222 306.275 20 306.878 20C308.69 20 312.149 20.1667 312.369 20.1667C312.588 20.1667 316.102 20 317.749 20C318.353 20 318.627 20.1111 318.627 20.4444C318.627 20.7778 318.408 20.7778 318.188 20.7778C317.727 20.7939 317.268 20.8497 316.816 20.9444C315.333 21.2222 314.894 22.1667 314.784 24.1111C314.675 25.8889 314.675 27.4444 314.675 36.1111V45.8889C314.675 51.2222 314.675 55.6111 314.949 57.9445C315.114 59.5556 315.443 60.7778 317.145 61C317.914 61.1111 319.067 61.2222 319.341 61.2222C319.835 61.2222 320 61.3889 320 61.5556C320 61.7222 319.78 62 319.176 62C316.157 62 312.588 61.8333 312.369 61.8333C312.149 61.8333 308.635 62 306.988 62C306.384 62 306.11 61.8889 306.11 61.5556C306.11 61.2222 306.22 61.2222 306.714 61.2222C307.194 61.2125 307.672 61.1567 308.141 61.0556C309.239 60.8333 309.569 59.5556 309.788 57.9445C310.063 55.6111 310.063 51.2222 310.063 45.8889L310.118 36.1111Z" fill="#231F20"/>
<path d="M334.469 45.8983C334.469 25.5122 334.584 32.8172 334.527 21.8314C334.527 19.6229 334.699 19 335.157 19C335.615 19 336.589 20.2458 337.162 20.8121C338.022 21.7748 346.56 30.8919 355.384 40.2355C361.045 46.2381 367.29 53.1467 369.136 55.0154L368.494 26.2484C368.494 22.5676 368.047 21.3217 366.271 20.8687C365.461 20.6904 364.636 20.5955 363.807 20.5856C363.176 20.5856 363.004 20.4157 363.004 20.1892C363.004 19.9627 363.463 19.7928 364.15 19.7928C366.729 19.7928 369.468 19.9627 370.11 19.9627C370.751 19.9627 372.619 19.7928 374.98 19.7928C375.599 19.7928 376 19.7928 376 20.1892C376 20.5856 375.771 20.529 375.381 20.5856C374.992 20.6422 374.579 20.6988 373.891 20.8121C372.287 21.1519 371.886 21.9447 371.886 25.9086L371.76 58.9794C371.76 62.7169 371.645 63 371.244 63C370.843 63 370.098 62.3771 367.073 59.3758C366.442 58.8095 358.18 50.4852 352.118 44.0296C345.471 36.9511 338.996 29.816 337.162 27.7773L337.907 54.9588C338.022 59.6023 338.595 61.0746 340.199 61.5277C341.138 61.7489 342.099 61.8629 343.064 61.8674C343.351 61.8674 343.523 61.9807 343.523 62.2072C343.523 62.4337 343.179 62.6602 342.491 62.6602C339.225 62.6602 336.933 62.4903 336.418 62.4903C335.902 62.4903 333.495 62.6602 330.917 62.6602C330.344 62.6602 330 62.6602 330 62.2072C330 61.7542 330.172 61.8674 330.458 61.8674C331.235 61.8618 332.006 61.7474 332.75 61.5277C334.183 61.1313 334.469 59.4891 334.469 54.3359V45.8983Z" fill="#231F20"/>
<path d="M425.844 57.4439C425.844 59.9694 425.787 60.0816 425.094 60.4745C421.4 62.3827 416.205 63 412.858 63C408.471 63 400.275 62.4388 393.868 56.9949C390.405 54.0204 387 48.0153 387 41C387 32.0204 391.502 25.6786 396.639 22.5357C401.776 19.3929 407.548 19 411.992 19C414.959 19.0595 417.915 19.3789 420.823 19.9541C422.363 20.2652 423.926 20.4529 425.498 20.5153C426.075 20.5153 426.191 20.7959 426.191 21.0204C425.903 23.6674 425.768 26.3281 425.787 28.9898C425.787 29.8878 425.671 30.1684 425.267 30.1684C424.863 30.1684 424.921 29.8316 424.863 29.3265C424.754 28.0182 424.34 26.7513 423.651 25.6225C422.208 23.4898 417.533 21.1327 410.087 21.1327C406.451 21.1327 402.122 21.4694 397.736 24.8367C394.388 27.4184 392.021 32.5255 392.021 39.0918C391.982 44.8368 394.166 50.3861 398.14 54.6377C400.12 56.5697 402.479 58.0965 405.076 59.1278C407.673 60.1592 410.456 60.6743 413.262 60.6429C415.517 60.7125 417.76 60.3106 419.842 59.4643C420.212 59.2839 420.519 59.0012 420.724 58.6517C420.929 58.3022 421.024 57.9016 420.996 57.5V47.8918C420.996 43.402 420.707 42.7286 418.399 42.1112C417.751 41.9971 417.094 41.9407 416.436 41.9429C416.205 41.9429 415.975 41.8306 415.975 41.6061C415.975 41.3816 416.263 41.1571 416.898 41.1571C419.495 41.1571 423.132 41.3255 423.42 41.3255C423.709 41.3255 427.345 41.1571 429.077 41.1571C429.711 41.1571 430 41.2694 430 41.6061C430 41.9429 429.769 41.9429 429.538 41.9429C429.053 41.9592 428.571 42.0155 428.095 42.1112C426.537 42.3918 426.075 43.3459 425.96 45.3102C425.844 47.1061 425.844 48.7898 425.844 51.1469V57.4439Z" fill="#231F20"/>
<path d="M463.818 61.4778C463.055 61.085 463 60.8606 463 59.3456C463 56.5401 463.218 54.2956 463.273 53.3979C463.327 52.7807 463.436 52.5001 463.709 52.5001C463.982 52.5001 464.091 52.6684 464.091 53.1173C464.074 53.8133 464.129 54.5092 464.255 55.1934C465.073 59.3456 468.673 60.9167 472.327 60.9167C477.564 60.9167 480.127 57.0451 480.127 53.454C480.127 49.5824 478.545 47.3379 473.855 43.3541L471.4 41.278C465.618 36.3964 464.309 32.9175 464.309 29.102C464.309 23.0981 468.673 19.0021 475.6 19.0021C477.307 18.9779 479.01 19.1663 480.673 19.5632C481.297 19.7274 481.937 19.8214 482.582 19.8437C483.018 19.8437 483.127 19.956 483.127 20.2365C483.127 20.5171 482.909 22.3687 482.909 26.1842C482.909 27.082 482.8 27.4748 482.527 27.4748C482.255 27.4748 482.145 27.1942 482.091 26.7453C481.99 25.7793 481.751 24.834 481.382 23.9398C481.055 23.3226 479.582 20.9659 474.564 20.9659C470.8 20.9659 467.855 23.3787 467.855 27.4748C467.855 30.6731 469.273 32.6931 474.509 36.9014L476.036 38.1358C482.473 43.3541 484 46.8329 484 51.3218C483.989 53.1391 483.563 54.9283 482.758 56.5459C481.953 58.1635 480.79 59.5644 479.364 60.6361C476.915 62.2645 474.042 63.0866 471.127 62.9928C468.611 63.0663 466.111 62.5481 463.818 61.4778V61.4778Z" fill="#231F20"/>
<path d="M513.205 45.8262C513.205 51.1803 513.205 55.5863 513.481 57.9287C513.647 59.5461 513.978 60.773 515.634 60.9961C516.458 61.1138 517.287 61.1882 518.118 61.2192C518.45 61.2192 518.56 61.3865 518.56 61.5538C518.56 61.7211 518.284 62 517.677 62C514.64 62 511.162 61.8327 510.886 61.8327C510.61 61.8327 507.132 62 505.476 62C504.869 62 504.593 61.8885 504.593 61.5538C504.593 61.2192 504.703 61.2192 505.035 61.2192C505.593 61.1998 506.147 61.1251 506.691 60.9961C507.795 60.773 508.071 59.5461 508.292 57.9287C508.568 55.5863 508.568 51.1803 508.568 45.8262V22.2348C505.863 22.2348 503.103 22.2348 500.397 22.3463C496.975 22.3463 495.65 22.7925 494.767 24.131C494.397 24.674 494.083 25.2532 493.828 25.8599C493.662 26.3061 493.497 26.4176 493.276 26.4176C493.055 26.4176 493 26.2503 493 25.9157C493 25.358 494.104 20.5616 494.214 20.1154C494.325 19.6693 494.546 19 494.767 19C495.546 19.3225 496.362 19.5472 497.196 19.6693C498.797 19.8366 500.894 19.9481 501.557 19.9481H522.259C523.571 19.973 524.883 19.8797 526.178 19.6693C527.006 19.5577 527.503 19.3904 527.724 19.3904C527.945 19.3904 528 19.725 528 20.0597C528 21.7328 527.834 25.5811 527.834 26.1946C527.834 26.808 527.669 26.9196 527.448 26.9196C527.227 26.9196 527.062 26.7523 527.006 25.9715C527.006 25.7484 526.951 25.5811 526.951 25.358C526.786 23.6848 525.461 22.4021 520.161 22.2905C517.842 22.2348 515.524 22.2348 513.205 22.179V45.8262Z" fill="#231F20"/>
<path d="M536 40.9439C536 31.852 542.599 19 558.034 19C570.605 19 580 26.9694 580 40.0459C580 52.6173 571.164 63 557.698 63C542.375 63 536 51.0459 536 40.9439ZM574.643 41.6174C574.643 28.148 566.467 20.9082 557.642 20.9082C548.303 20.9082 541.313 27.0816 541.313 39.3725C541.313 52.449 549.142 60.8673 559.208 60.8673C564.23 60.8673 574.643 57.9939 574.643 41.6174Z" fill="#231F20"/>
<path d="M595.422 45.8983C595.422 25.5122 595.534 32.8172 595.478 21.8314C595.478 19.6229 595.646 19 596.093 19C596.541 19 597.493 20.2458 598.052 20.8121C598.892 21.7748 607.231 30.8919 615.851 40.2355C621.392 46.2381 627.493 53.1467 629.284 55.0154L628.668 26.2484C628.612 22.5676 628.22 21.3217 626.485 20.8687C625.695 20.6898 624.888 20.5949 624.078 20.5856C623.463 20.5856 623.295 20.4157 623.295 20.1892C623.295 19.9627 623.743 19.7928 624.414 19.7928C626.933 19.7928 629.619 19.9627 630.235 19.9627C630.851 19.9627 632.698 19.7928 634.993 19.7928C635.608 19.7928 636 19.7928 636 20.1892C636 20.5856 635.776 20.529 635.384 20.5856C634.993 20.6422 634.601 20.6988 633.929 20.8121C632.362 21.1519 631.97 21.9447 631.97 25.9086L631.858 58.9794C631.858 62.7169 631.746 63 631.354 63C630.963 63 630.235 62.3771 627.269 59.3758C626.653 58.8095 618.593 50.4852 612.66 44.0296C606.168 36.9511 599.843 29.816 598.052 27.7773L598.78 54.9588C598.892 59.6023 599.451 61.0746 600.963 61.5277C601.88 61.7489 602.819 61.8629 603.761 61.8674C604.041 61.8674 604.209 61.9807 604.209 62.2072C604.209 62.4337 603.873 62.6602 603.201 62.6602C600.011 62.6602 597.772 62.4903 597.269 62.4903C596.765 62.4903 594.414 62.6602 591.896 62.6602C591.336 62.6602 591 62.6602 591 62.2072C591 61.7542 591.168 61.8674 591.448 61.8674C592.225 61.8672 592.998 61.7527 593.743 61.5277C595.142 61.1313 595.422 59.4891 595.422 54.3359V45.8983Z" fill="#231F20"/>
<path d="M653.095 35.7067C653.095 26.9609 653.095 25.3911 652.977 23.5971C652.86 21.8031 652.392 20.794 650.459 20.4016C649.898 20.312 649.33 20.2558 648.761 20.2334C648.351 20.2334 648 20.1213 648 19.897C648 19.6728 648.293 19.4485 648.937 19.4485C650.284 19.4485 651.865 19.4485 655.554 19.6167C655.964 19.6167 667.617 19.6167 668.964 19.5606C669.874 19.5693 670.781 19.4561 671.658 19.2242C671.85 19.1002 672.071 19.0232 672.302 19C672.478 19 672.536 19.2242 672.536 19.5046C672.33 20.374 672.173 21.2537 672.068 22.1395C672.068 22.9804 671.95 24.0456 671.833 25.5033C671.833 26.0639 671.599 26.4563 671.365 26.4563C671.131 26.4563 670.896 26.176 670.896 25.7275C670.908 25.0995 670.809 24.4741 670.604 23.8775C670.194 22.588 668.964 22.0274 666.387 21.8031C665.392 21.691 659.009 21.6349 658.365 21.6349C658.131 21.6349 658.014 21.8031 658.014 22.1956V37.6688C658.014 38.0613 658.014 38.2295 658.365 38.2295C659.126 38.2295 666.329 38.2295 667.734 38.1173C669.315 38.0052 670.077 37.837 670.662 37.1643C670.955 36.8279 671.131 36.6036 671.365 36.6036C671.599 36.6036 671.658 36.7158 671.658 37.0522C671.658 37.3885 671.365 38.3416 671.189 40.1917C671.014 42.0417 671.014 43.219 670.955 44.0039C670.955 44.5645 670.779 44.8448 670.545 44.8448C670.311 44.8448 670.135 44.3963 670.135 43.9478C670.144 43.4161 670.065 42.8863 669.901 42.3781C669.667 41.5372 668.964 40.7523 666.856 40.528C665.275 40.3598 659.477 40.2477 658.482 40.2477C658.427 40.2425 658.371 40.249 658.319 40.2669C658.267 40.2848 658.219 40.3135 658.18 40.3511C658.141 40.3886 658.111 40.434 658.092 40.484C658.073 40.534 658.067 40.5873 658.072 40.6402V45.5737C658.072 47.4798 658.072 53.983 658.072 55.1604C658.189 57.4589 658.541 58.6923 660.005 59.2529C661.582 59.6894 663.226 59.8601 664.865 59.7575C666.637 59.8206 668.411 59.6508 670.135 59.2529C672.009 58.6923 672.653 57.515 673.122 55.1043C673.239 54.4876 673.356 54.2634 673.649 54.2634C673.941 54.2634 674 54.7119 674 55.1043C674 55.4967 673.532 59.3651 673.239 60.5424C672.829 62 672.36 62 670.077 62C665.743 62 663.811 61.8879 661.527 61.8318C659.243 61.7757 656.491 61.6636 654.207 61.6636C652.802 61.6636 651.396 61.8879 649.874 61.8318C649.23 61.8318 648.937 61.7197 648.937 61.3833C648.937 61.0469 649.23 61.103 649.581 61.0469C650.034 61.0296 650.485 60.9734 650.928 60.8787C652.158 60.5984 652.919 59.8136 653.036 55.6089C653.036 53.3664 653.153 50.5632 653.153 45.5176L653.095 35.7067Z" fill="#231F20"/>
<path d="M303 97.0654V75H308.063C312.61 75 314.433 76.7652 314.433 80.4502C314.407 81.5413 314.129 82.6078 313.625 83.5508C313.12 84.4939 312.405 85.283 311.547 85.8451C312.551 86.1629 313.432 86.83 314.055 87.7443C314.679 88.6587 315.01 89.7702 315 90.9092C315 95.7525 311.486 97.9921 308.063 97.9921C306.336 98.055 304.614 97.7399 303 97.0654V97.0654ZM305.582 76.9638V84.9294H310.129C310.718 84.4202 311.193 83.7706 311.516 83.0304C311.839 82.2903 312.002 81.4793 311.992 80.6598C311.992 78.2436 310.797 76.9418 308.134 76.9418L305.582 76.9638ZM305.582 86.8932V95.4656C306.482 95.8424 307.444 96.0152 308.407 95.9732C309.38 96.0178 310.341 95.7367 311.162 95.1678C311.983 94.0315 312.394 92.6067 312.316 91.1629C312.316 88.846 311.304 87.4008 309.997 86.8932H305.582Z" fill="#231F20"/>
<path d="M347 97.0654V75H352.907C358.212 75 360.338 76.7652 360.338 80.4502C360.308 81.5413 359.984 82.6078 359.395 83.5508C358.807 84.4939 357.973 85.283 356.971 85.8451C358.142 86.1629 359.17 86.83 359.898 87.7443C360.625 88.6587 361.012 89.7702 361 90.9092C361 95.7525 356.9 97.9921 352.907 97.9921C350.892 98.055 348.883 97.7399 347 97.0654V97.0654ZM350.013 76.9307V84.9294H355.317C356.003 84.4186 356.555 83.7686 356.932 83.0288C357.308 82.289 357.499 81.4789 357.491 80.6598C357.491 78.2436 356.097 76.9418 352.99 76.9418L350.013 76.9307ZM350.013 86.8602V95.4325C351.063 95.8093 352.184 95.9821 353.309 95.9401C354.443 95.9847 355.564 95.7036 356.522 95.1347C357.48 93.9984 357.96 92.5736 357.869 91.1298C357.869 88.8129 356.688 87.3677 355.164 86.8602H350.013Z" fill="#231F20"/>
<path d="M374.948 94.9912L381.884 94.8516C381.959 95.2055 381.997 95.5652 382 95.9258C382 96.8389 381.699 97 380.751 97H372V75.1719C372.509 75.0661 373.028 75.0085 373.549 75C374.798 75 374.948 75.3545 374.948 76.9336V94.9912Z" fill="#231F20"/>
<path d="M395.081 94.957L403.795 94.8172C403.843 95.1454 403.871 95.4756 403.88 95.8065C403.88 96.6774 403.603 97 402.495 97H394.491C392.084 97 392 96.7527 392 94.9247V75H403.88C403.948 75.3374 403.988 75.6789 404 76.0215C404 76.9032 403.603 77.0968 402.532 77.0968L395.081 77.0215V84.8172H402.652C402.718 85.1182 402.746 85.4247 402.736 85.7312C402.736 86.6129 402.339 86.8925 401.436 86.8925L395.081 86.7849V94.957Z" fill="#231F20"/>
<path d="M435.964 75.0032C437.407 74.9591 438.825 75.3712 440 76.1761C439.819 77.6314 439.265 77.9572 438.87 77.9572C438.124 77.9572 437.49 77.2079 435.196 77.2079C434.021 77.2118 432.869 77.5195 431.861 78.0984C430.606 80.0533 430.086 83.6154 430.086 86.602C430.086 93.683 432.573 95.7899 435.795 95.7899C437.025 95.7807 438.218 95.3797 439.186 94.6495L439.966 96.4632C438.577 97.518 436.841 98.061 435.071 97.9945C430.222 97.9945 427 94.5409 427 86.5695C426.966 78.207 431.036 75.0032 435.964 75.0032Z" fill="#231F20"/>
<path d="M451 97V75.1716C451.525 75.0654 452.06 75.0079 452.598 75C453.886 75 454.041 75.354 454.041 76.9308V85.0185H462.948V75.1716C463.435 75.0625 463.935 75.0049 464.438 75C465.845 75 466 75.354 466 76.9308V97H462.948V86.9493H454.041V97H451Z" fill="#231F20"/>
<path d="M479 75.1766C479.507 75.0673 480.024 75.0081 480.544 75C481.788 75 481.984 75.3642 481.984 76.9864V91.0236C481.984 94.5218 483.137 95.7578 485.867 95.7578C487.353 95.7685 488.81 95.366 490.062 94.599V75.0552H493V95.3605C490.857 97.1111 488.119 98.0493 485.303 97.998C480.694 97.998 479 95.7137 479 91.3767V75.1766Z" fill="#231F20"/>
<path d="M505 75H511.906C516.589 75 518.696 77.3708 518.696 81.2666C518.681 82.6343 518.253 83.9693 517.465 85.1135C516.677 86.2576 515.56 87.163 514.247 87.7224L519 97.6064C518.436 97.8564 517.82 97.9819 517.197 97.9737C516.726 98.0514 516.24 97.9554 515.84 97.7052C515.44 97.4551 515.155 97.0695 515.043 96.6269L511.789 88.5683C511.166 88.6631 510.536 88.7115 509.905 88.713C509.331 88.713 508.676 88.713 507.985 88.6017V97.829H505V75ZM513.931 85.8302C514.958 84.6115 515.49 83.0828 515.43 81.5226C515.43 78.1834 514.13 76.8588 510.56 76.8588C509.7 76.8545 508.841 76.8916 507.985 76.9701V86.4089C508.782 86.5624 509.594 86.637 510.408 86.6316C511.642 86.6525 512.859 86.3564 513.931 85.7745V85.8302Z" fill="#231F20"/>
<path d="M537.691 75.0027C539.231 74.9625 540.743 75.3743 542 76.1756C541.807 77.631 541.203 77.9568 540.793 77.9568C540.009 77.9568 539.333 77.2074 536.883 77.2074C535.608 77.1999 534.355 77.508 533.262 78.0979C531.922 80.0528 531.367 83.6151 531.367 86.6018C531.367 93.6828 534.01 95.7898 537.402 95.7898C538.716 95.7806 539.989 95.3796 541.022 94.6494L541.843 96.4632C540.364 97.518 538.515 98.0613 536.629 97.9945C531.44 97.9945 528 94.5408 528 86.5692C528.072 78.2065 532.441 75.0027 537.691 75.0027Z" fill="#231F20"/>
<path d="M552 97V75.1716C552.525 75.066 553.06 75.0085 553.598 75C554.897 75 555.052 75.354 555.052 76.9308V85.0185H563.959V75.1716C564.443 75.0618 564.939 75.0042 565.438 75C566.845 75 567 75.354 567 76.9308V97H563.959V86.9493H555.052V97H552Z" fill="#231F20"/>
<path d="M329 75.0723C329 75.0723 331.155 74.7523 331.697 75.4585C331.932 76.3232 332.031 77.2152 331.992 78.1065V95.1203C331.992 95.1203 331.992 98 330.814 98H329.118C329.035 97.4483 329.118 95.043 329.118 95.043V78.0403L329 75.0723Z" fill="#231F20"/>
<path d="M22.9094 80.22C27.9594 75.68 26.1894 66.59 28.7194 50.69C31.2494 34.79 23.6694 28.49 22.4094 26.69C21.7031 25.5222 21.1168 24.2859 20.6594 23C20.5294 23 20.4194 23.11 20.2894 23.15C16.8994 24.31 9.47941 33.59 8.18941 37.33C6.89941 41.07 6.4794 51.86 5.1094 54.47C2.9894 58.54 3.10941 64.71 0.689413 70.82C0.689413 70.82 -3.3106 82.01 7.9594 91.29C8.9094 92.08 9.73939 92.78 10.4794 93.43C14.2912 88.7261 18.4459 84.3107 22.9094 80.22V80.22Z" fill="#231F20"/>
<path d="M36.21 38.9555C40.5 41.2255 58.92 35.9555 64.9 34.6655C70.88 33.3755 78.35 23.5655 78.54 20.2855C78.73 17.0055 87.69 11.1955 89.71 7.66548C90.8155 5.34031 91.5671 2.86293 91.94 0.315485C88.24 -0.854515 85.73 1.49548 83.13 3.02548C78.74 5.61548 77.66 5.62548 72.79 5.87548C67.92 6.12548 60.73 4.51548 56.54 4.72548C53.21 4.88548 53.21 4.88549 49.05 6.57549C44.89 8.26549 24.42 13.2455 24.57 16.1955C24.6438 17.0538 24.5427 17.9182 24.2729 18.7364C24.003 19.5546 23.57 20.3095 23 20.9555C27.99 30.1655 33.14 37.3555 36.21 38.9555Z" fill="#231F20"/>
<path d="M139 9.49C133.3 2.87999 135 -1.15001 124.26 0.379995C113.52 1.90999 123.84 0.890001 113.54 1.91C105.79 2.67 100.6 3.40999 96.6599 2.83999C95.5399 4.38999 94.5699 5.96 94.5699 6.72C94.5699 8.49 88.5099 16.31 85.7399 18.83C82.9699 21.35 76.3999 33.72 72.6199 35.23C68.8399 36.74 45.3599 42.8 41.8299 42.8C38.2999 42.8 38.5999 49.1 33.1399 52.34C26.0799 56.52 28.9599 73.34 28.9699 79.65C28.9799 85.96 26.4299 88 26.4299 92C26.4299 96 20.3699 95.79 18.9799 97.81C18.2599 98.81 18.9799 100.57 19.8799 101.99C21.1799 102.5 22.9599 103.09 25.5399 103.91C37.5399 107.74 63.9899 113.8 71.3599 113.43C78.7299 113.06 74.3599 116.56 98.2399 115.36C122.12 114.16 121.44 117.67 132.57 98.87C143.7 80.07 149.94 69.05 154.04 62.44C158.14 55.83 161.61 47.65 161.43 41.74C161.25 35.83 144.69 16.1 139 9.49Z" fill="#231F20"/>
</svg>
